<svg version="1.1" id="Layer_1" xmlns="http://www.w3.org/2000/svg" xmlns:xlink="http://www.w3.org/1999/xlink" x="0px" y="0px"
	 width="100%" viewBox="0 0 192 192" enable-background="new 0 0 192 192" xml:space="preserve">
<path fill="#000000" opacity="1.000000" stroke="none" 
	d="
M116.000000,193.000000 
	C77.358192,193.000000 39.216389,193.000000 1.037290,193.000000 
	C1.037290,129.066559 1.037290,65.133102 1.037290,1.099821 
	C64.891624,1.099821 128.783463,1.099821 192.837646,1.099821 
	C192.837646,64.999664 192.837646,128.999802 192.837646,193.000000 
	C167.466721,193.000000 141.983368,193.000000 116.000000,193.000000 
M65.410278,180.035812 
	C69.180870,180.385117 72.948730,180.767502 76.722504,181.078171 
	C96.220909,182.683365 115.730331,183.360901 134.939804,178.822235 
	C144.977783,176.450546 154.303116,172.069397 161.240128,164.117920 
	C171.941620,151.851425 175.095856,136.738907 175.895050,121.104019 
	C176.441467,110.414223 176.388474,99.655426 175.879410,88.961945 
	C175.458527,80.120773 174.689941,71.175018 172.813477,62.550140 
	C169.192459,45.906471 159.436890,34.008301 143.282837,27.587334 
	C134.305405,24.018955 125.045265,22.671711 115.480820,21.800383 
	C96.579048,20.078419 77.789001,20.551683 59.242062,24.192076 
	C38.779884,28.208389 24.572067,40.274349 19.430243,60.777908 
	C16.734034,71.529320 16.061008,82.845329 15.142575,93.961586 
	C14.671063,99.668533 15.593974,105.502060 16.017088,111.268822 
	C16.619804,119.483414 16.633724,127.821960 18.142178,135.874710 
	C23.365746,163.760315 37.377148,175.738220 65.410278,180.035812 
z"/>
<path fill="#00A85E" opacity="1.000000" stroke="none" 
	d="
M64.966965,180.021576 
	C37.377148,175.738220 23.365746,163.760315 18.142178,135.874710 
	C16.633724,127.821960 16.619804,119.483414 16.017088,111.268822 
	C15.593974,105.502060 14.671063,99.668533 15.142575,93.961586 
	C16.061008,82.845329 16.734034,71.529320 19.430243,60.777908 
	C24.572067,40.274349 38.779884,28.208389 59.242062,24.192076 
	C77.789001,20.551683 96.579048,20.078419 115.480820,21.800383 
	C125.045265,22.671711 134.305405,24.018955 143.282837,27.587334 
	C159.436890,34.008301 169.192459,45.906471 172.813477,62.550140 
	C174.689941,71.175018 175.458527,80.120773 175.879410,88.961945 
	C176.388474,99.655426 176.441467,110.414223 175.895050,121.104019 
	C175.095856,136.738907 171.941620,151.851425 161.240128,164.117920 
	C154.303116,172.069397 144.977783,176.450546 134.939804,178.822235 
	C115.730331,183.360901 96.220909,182.683365 76.722504,181.078171 
	C72.948730,180.767502 69.180870,180.385117 64.966965,180.021576 
M129.319855,62.912727 
	C104.451881,75.492348 80.208488,74.192245 56.336147,59.267269 
	C53.875164,69.026970 51.106068,78.416466 49.244488,87.982559 
	C48.110229,93.811157 47.799080,99.947479 48.166508,105.880661 
	C48.560680,112.245644 56.472145,121.200226 62.125576,121.788734 
	C70.480873,122.658478 78.925827,122.666885 87.229958,123.037483 
	C89.553284,114.942513 91.415207,113.589012 99.288918,115.190361 
	C101.056190,115.549782 103.492279,117.655357 103.762390,119.268242 
	C104.285889,122.394135 105.650009,123.180824 108.383293,123.005730 
	C113.984787,122.646889 119.685364,121.520920 125.171860,122.171715 
	C135.970001,123.452568 146.250702,109.270439 144.769501,99.829735 
	C142.642685,86.273972 139.133102,72.935165 136.166550,59.286385 
	C133.728195,60.561871 131.841904,61.548573 129.319855,62.912727 
M119.710640,126.008148 
	C115.107742,126.337021 110.481339,127.071213 105.912895,126.806175 
	C103.934349,126.691383 100.619202,124.706001 100.428467,123.242279 
	C99.795082,118.381531 97.001007,118.762482 93.734077,119.231834 
	C89.841339,128.276489 91.744316,126.899254 81.976730,126.954826 
	C79.702934,126.967766 77.398262,126.040215 75.156036,126.204346 
	C70.127403,126.572456 64.832970,126.560509 60.233143,128.275772 
	C57.613514,129.252640 55.172298,133.124359 54.561302,136.086578 
	C54.239391,137.647263 58.020836,140.054321 59.949512,142.079224 
	C59.916012,141.453079 59.882511,140.826920 59.849010,140.200775 
	C62.275967,138.472382 64.500565,135.854492 67.181953,135.244461 
	C70.413071,134.509369 74.031372,135.491501 77.483414,135.708740 
	C83.389931,136.080444 89.379150,137.126312 94.620956,132.989868 
	C95.356239,132.409622 97.153946,132.041290 97.667313,132.487244 
	C103.727707,137.751801 110.569489,136.199615 117.418213,135.081635 
	C126.478897,133.602539 129.739487,135.079636 131.563583,141.332642 
	C139.606873,136.723114 140.122650,133.247253 132.426224,128.306763 
	C129.294739,126.296593 124.615257,126.697960 119.710640,126.008148 
z"/>
<path fill="#000000" opacity="1.000000" stroke="none" 
	d="
M129.637741,62.723999 
	C131.841904,61.548573 133.728195,60.561871 136.166550,59.286385 
	C139.133102,72.935165 142.642685,86.273972 144.769501,99.829735 
	C146.250702,109.270439 135.970001,123.452568 125.171860,122.171715 
	C119.685364,121.520920 113.984787,122.646889 108.383293,123.005730 
	C105.650009,123.180824 104.285889,122.394135 103.762390,119.268242 
	C103.492279,117.655357 101.056190,115.549782 99.288918,115.190361 
	C91.415207,113.589012 89.553284,114.942513 87.229958,123.037483 
	C78.925827,122.666885 70.480873,122.658478 62.125576,121.788734 
	C56.472145,121.200226 48.560680,112.245644 48.166508,105.880661 
	C47.799080,99.947479 48.110229,93.811157 49.244488,87.982559 
	C51.106068,78.416466 53.875164,69.026970 56.336147,59.267269 
	C80.208488,74.192245 104.451881,75.492348 129.637741,62.723999 
M113.169533,107.935646 
	C114.333656,107.956902 115.497772,107.995773 116.661911,107.996689 
	C128.431259,108.005951 134.931213,98.131348 130.057007,87.475403 
	C129.303284,85.827629 127.801788,84.521896 126.646111,83.057983 
	C125.118538,84.297882 123.255798,85.290771 122.126007,86.823814 
	C118.685051,91.492897 114.042717,93.441780 108.588493,92.349495 
	C106.908081,92.012962 105.103355,92.297211 103.406609,92.297211 
	C102.504013,100.464806 104.394005,103.625183 113.169533,107.935646 
M80.304718,107.271629 
	C87.625305,103.710114 89.697403,99.958740 88.410248,92.225319 
	C87.524124,92.157204 86.512001,91.842995 85.619003,92.047913 
	C78.022102,93.791176 72.224327,91.858215 68.575905,84.486855 
	C68.209297,83.746147 64.469803,83.597282 64.300797,84.004974 
	C62.805542,87.611946 60.523880,91.513954 60.835915,95.124733 
	C61.571758,103.639870 66.822601,109.610985 80.304718,107.271629 
z"/>
<path fill="#000000" opacity="1.000000" stroke="none" 
	d="
M120.175369,126.005127 
	C124.615257,126.697960 129.294739,126.296593 132.426224,128.306763 
	C140.122650,133.247253 139.606873,136.723114 131.563583,141.332642 
	C129.739487,135.079636 126.478897,133.602539 117.418213,135.081635 
	C110.569489,136.199615 103.727707,137.751801 97.667313,132.487244 
	C97.153946,132.041290 95.356239,132.409622 94.620956,132.989868 
	C89.379150,137.126312 83.389931,136.080444 77.483414,135.708740 
	C74.031372,135.491501 70.413071,134.509369 67.181953,135.244461 
	C64.500565,135.854492 62.275967,138.472382 59.849010,140.200775 
	C59.882511,140.826920 59.916012,141.453079 59.949512,142.079224 
	C58.020836,140.054321 54.239391,137.647263 54.561302,136.086578 
	C55.172298,133.124359 57.613514,129.252640 60.233143,128.275772 
	C64.832970,126.560509 70.127403,126.572456 75.156036,126.204346 
	C77.398262,126.040215 79.702934,126.967766 81.976730,126.954826 
	C91.744316,126.899254 89.841339,128.276489 93.734077,119.231834 
	C97.001007,118.762482 99.795082,118.381531 100.428467,123.242279 
	C100.619202,124.706001 103.934349,126.691383 105.912895,126.806175 
	C110.481339,127.071213 115.107742,126.337021 120.175369,126.005127 
z"/>
<path fill="#00A85E" opacity="1.000000" stroke="none" 
	d="
M112.766235,107.840805 
	C104.394005,103.625183 102.504013,100.464806 103.406609,92.297211 
	C105.103355,92.297211 106.908081,92.012962 108.588493,92.349495 
	C114.042717,93.441780 118.685051,91.492897 122.126007,86.823814 
	C123.255798,85.290771 125.118538,84.297882 126.646111,83.057983 
	C127.801788,84.521896 129.303284,85.827629 130.057007,87.475403 
	C134.931213,98.131348 128.431259,108.005951 116.661911,107.996689 
	C115.497772,107.995773 114.333656,107.956902 112.766235,107.840805 
z"/>
<path fill="#00A85E" opacity="1.000000" stroke="none" 
	d="
M79.978012,107.527687 
	C66.822601,109.610985 61.571758,103.639870 60.835915,95.124733 
	C60.523880,91.513954 62.805542,87.611946 64.300797,84.004974 
	C64.469803,83.597282 68.209297,83.746147 68.575905,84.486855 
	C72.224327,91.858215 78.022102,93.791176 85.619003,92.047913 
	C86.512001,91.842995 87.524124,92.157204 88.410248,92.225319 
	C89.697403,99.958740 87.625305,103.710114 79.978012,107.527687 
z"/>
</svg>
